<?xml version="1.0" encoding="UTF-8" standalone="no"?>
<!DOCTYPE svg PUBLIC "-//W3C//DTD SVG 1.1//EN" "http://www.w3.org/Graphics/SVG/1.1/DTD/svg11.dtd">
<svg width="100%" height="100%" viewBox="0 0 3408 3187" version="1.1" xmlns="http://www.w3.org/2000/svg" xmlns:xlink="http://www.w3.org/1999/xlink" xml:space="preserve" xmlns:serif="http://www.serif.com/" style="fill-rule:evenodd;clip-rule:evenodd;stroke-linejoin:round;stroke-miterlimit:2;">
    <g transform="matrix(1,0,0,1,-461.919444,-8171.716667)">
        <g transform="matrix(5.555556,0,0,5.555556,461.919444,11358.311111)">
            <path d="M0,-573.587L0,-116.025L366.824,-116.025L613.373,0L613.373,-573.587L0,-573.587Z" style="fill:rgb(255,66,94);fill-rule:nonzero;"/>
        </g>
        <g transform="matrix(5.555556,0,0,5.555556,2652.716667,10092.812778)">
            <path d="M0,-0.603C0.733,-0.603 1.14,-0.961 1.14,-1.564C1.14,-2.199 0.733,-2.557 0,-2.557L-0.847,-2.557L-0.847,-0.603L0,-0.603ZM-0.847,2.916L-2.085,2.916L-2.085,-3.632L0.179,-3.632C1.45,-3.632 2.394,-2.737 2.394,-1.581C2.394,-0.667 1.808,0.082 0.961,0.359L2.427,2.916L1.01,2.916L-0.358,0.472L-0.847,0.472L-0.847,2.916ZM-0.098,4.529C2.509,4.529 4.561,2.427 4.561,-0.309C4.561,-3.046 2.509,-5.131 -0.098,-5.131C-2.704,-5.131 -4.757,-3.046 -4.757,-0.309C-4.757,2.427 -2.704,4.529 -0.098,4.529M-0.098,-6.321C3.209,-6.321 5.881,-3.617 5.881,-0.309C5.881,2.998 3.209,5.718 -0.098,5.718C-3.388,5.718 -6.027,2.998 -6.027,-0.309C-6.027,-3.617 -3.388,-6.321 -0.098,-6.321" style="fill:white;fill-rule:nonzero;"/>
        </g>
        <g transform="matrix(5.555556,0,0,5.555556,1871.434444,10378.461667)">
            <path d="M0,-48.842L11.605,-37.238L11.605,-28.148L3.721,-36.031L-31.58,-36.031L-31.58,-48.842L0,-48.842ZM-19.975,-21.795L-25.227,-27.047L0,-27.047L5.252,-21.795L-19.975,-21.795ZM-31.58,-20.695L-23.697,-12.811L11.605,-12.811L11.605,0L-19.975,0L-31.58,-11.605L-31.58,-20.695ZM3.721,-57.826L-40.564,-57.826L-40.564,-7.883L-23.697,8.984L20.589,8.984L20.589,-40.958L3.721,-57.826Z" style="fill:white;fill-rule:nonzero;"/>
        </g>
        <g transform="matrix(5.555556,0,0,5.555556,0,-47245.061111)">
            <path d="M379.558,10329.832L387.556,10329.832L387.556,10326.69L379.558,10326.69L379.558,10329.832ZM379.558,10322.121L385.385,10322.121L386.556,10318.978L379.558,10318.978L379.558,10322.121ZM389.841,10314.408L391.983,10317.493L390.155,10322.434L392.126,10324.406L392.126,10332.118L389.841,10334.403L377.272,10334.403L374.987,10332.118L374.987,10316.693L377.272,10314.408L389.841,10314.408Z" style="fill:white;fill-rule:nonzero;"/>
        </g>
        <g transform="matrix(5.555556,0,0,5.555556,0,-47245.061111)">
            <path d="M399.553,10329.832L410.408,10329.832L410.408,10318.978L399.553,10318.978L399.553,10329.832ZM412.693,10314.408L414.978,10316.693L414.978,10332.118L412.693,10334.403L397.268,10334.403L394.983,10332.118L394.983,10316.693L397.268,10314.408L412.693,10314.408Z" style="fill:white;fill-rule:nonzero;"/>
        </g>
        <g transform="matrix(5.555556,0,0,5.555556,2427.626667,10168.287222)">
            <path d="M0,-19.995L-4.827,-9.969L0,0L-5.085,0L-8.798,-7.712L-11.226,-7.712L-14.939,0L-19.995,0L-15.168,-10.026L-19.995,-19.995L-14.911,-19.995L-11.197,-12.282L-8.769,-12.282L-5.056,-19.995L0,-19.995Z" style="fill:white;fill-rule:nonzero;"/>
        </g>
        <g transform="matrix(5.555556,0,0,5.555556,0,-46983.072222)">
            <path d="M379.558,10306.254L390.413,10306.254L390.413,10295.4L379.558,10295.4L379.558,10306.254ZM392.698,10290.829L394.983,10293.114L394.983,10308.539L392.698,10310.824L377.272,10310.824L374.987,10308.539L374.987,10293.114L377.272,10290.829L392.698,10290.829Z" style="fill:white;fill-rule:nonzero;"/>
        </g>
        <g transform="matrix(5.555556,0,0,5.555556,2302.258889,10299.282222)">
            <path d="M0,-19.995L0,-15.425L-10.569,-15.425L-9.198,-11.141L-1.143,-11.141L-1.143,-6.57L-11.426,-6.57L-11.426,0L-15.996,0L-15.996,-8.855L-13.911,-10.94L-15.882,-16.996L-13.711,-19.995L0,-19.995Z" style="fill:white;fill-rule:nonzero;"/>
        </g>
        <g transform="matrix(5.555556,0,0,5.555556,2402.233889,10299.282222)">
            <path d="M0,-19.995L0,-15.425L-10.569,-15.425L-9.198,-11.141L-1.143,-11.141L-1.143,-6.57L-11.426,-6.57L-11.426,0L-15.996,0L-15.996,-8.855L-13.911,-10.94L-15.882,-16.996L-13.711,-19.995L0,-19.995Z" style="fill:white;fill-rule:nonzero;"/>
        </g>
        <g transform="matrix(5.555556,0,0,5.555556,0,-46983.072222)">
            <rect x="434.401" y="10290.829" width="4.57" height="19.995" style="fill:white;"/>
        </g>
        <g transform="matrix(5.555556,0,0,5.555556,2556.165556,10299.282222)">
            <path d="M0,-19.995L2.285,-17.71L2.285,-11.997L-2.285,-11.997L-2.285,-15.425L-13.14,-15.425L-13.14,-4.57L-2.285,-4.57L-2.285,-7.998L2.285,-7.998L2.285,-2.285L0,0L-15.425,0L-17.71,-2.285L-17.71,-17.71L-15.425,-19.995L0,-19.995Z" style="fill:white;fill-rule:nonzero;"/>
        </g>
        <g transform="matrix(5.555556,0,0,5.555556,2683.119444,10299.282222)">
            <path d="M0,-19.995L0,-15.425L-11.569,-15.425L-10.398,-12.283L-2.857,-12.283L-2.857,-7.713L-12.569,-7.713L-12.569,-4.57L0,-4.57L0,0L-14.854,0L-17.139,-2.285L-17.139,-9.998L-15.168,-11.969L-16.996,-16.91L-14.854,-19.995L0,-19.995Z" style="fill:white;fill-rule:nonzero;"/>
        </g>
        <g transform="matrix(5.555556,0,0,5.555556,2108.653333,10368.386111)">
            <path d="M0,2.285L7.998,0.457L7.998,-4.284L0,-4.284L0,2.285ZM10.283,-8.855L12.569,-6.569L12.569,2.285L10.798,4.514L0,6.97L0,11.14L-4.57,11.14L-4.57,-6.569L-2.285,-8.855L10.283,-8.855Z" style="fill:white;fill-rule:nonzero;"/>
        </g>
        <g transform="matrix(5.555556,0,0,5.555556,2287.976111,10430.277222)">
            <path d="M0,-19.995L0,-2.285L-2.285,0L-14.854,0L-17.139,-2.285L-17.139,-19.995L-12.569,-19.995L-12.569,-4.57L-4.57,-4.57L-4.57,-19.995L0,-19.995Z" style="fill:white;fill-rule:nonzero;"/>
        </g>
        <g transform="matrix(5.555556,0,0,5.555556,2411.755,10430.277222)">
            <path d="M0,-19.995L0,-15.425L-14.283,-15.425L-14.283,-4.57L-3.428,-4.57L-3.428,-7.713L-8.855,-7.713L-8.855,-12.283L-1.143,-12.283L1.142,-9.998L1.142,-2.285L-1.143,0L-16.568,0L-18.853,-2.285L-18.853,-17.71L-16.568,-19.995L0,-19.995Z" style="fill:white;fill-rule:nonzero;"/>
        </g>
        <g transform="matrix(5.555556,0,0,5.555556,2462.535556,10430.277222)">
            <path d="M0,-19.995L0,-4.57L9.712,-4.57L9.712,0L-2.285,0L-4.57,-2.285L-4.57,-19.995L0,-19.995Z" style="fill:white;fill-rule:nonzero;"/>
        </g>
        <g transform="matrix(5.555556,0,0,5.555556,0,-46721.083333)">
            <rect x="454.968" y="10267.25" width="4.57" height="19.995" style="fill:white;"/>
        </g>
        <g transform="matrix(5.555556,0,0,5.555556,2597.265,10354.42)">
            <path d="M0,8.17L6.827,4.771L5.142,-1.77L2.571,-1.77L0,8.17ZM6.913,-6.341L9.112,-4.627L13.854,13.654L9.141,13.654L7.998,9.284L-2.457,14.511L-5.684,11.883L-1.4,-4.627L0.8,-6.341L6.913,-6.341Z" style="fill:white;fill-rule:nonzero;"/>
        </g>
        <g transform="matrix(1,0,0,1,721.8419,7254.554806)">
            <text x="158.453px" y="1929.174px" style="font-family:'CircularStd-Book', 'Circular Std', sans-serif;font-weight:450;font-size:465.069px;fill:white;">F<tspan x="401.219px 563.529px " y="1929.174px 1929.174px ">ro</tspan>m</text>
            <text x="1296.943px" y="1929.174px" style="font-family:'MarsWars-RegularDEMO', 'Mars Wars';font-weight:700;font-size:465.069px;fill:rgb(253,253,253);">Puglia</text>
            <text x="357.968px" y="2379.361px" style="font-family:'CircularStd-Book', 'Circular Std', sans-serif;font-weight:450;font-size:465.069px;fill:white;">For</text>
            <g transform="matrix(465.069444,0,0,465.069444,2529.842197,2379.36075)">
            </g>
            <text x="1097.428px" y="2379.361px" style="font-family:'MarsWars-RegularDEMO', 'Mars Wars';font-weight:700;font-size:465.069px;fill:rgb(253,253,253);">Puglia</text>
        </g>
    </g>
</svg>
