<?xml version="1.0" encoding="UTF-8" standalone="no"?>
<!DOCTYPE svg PUBLIC "-//W3C//DTD SVG 1.1//EN" "http://www.w3.org/Graphics/SVG/1.1/DTD/svg11.dtd">
<svg width="100%" height="100%" viewBox="0 0 1467 1603" version="1.1" xmlns="http://www.w3.org/2000/svg" xmlns:xlink="http://www.w3.org/1999/xlink" xml:space="preserve" xmlns:serif="http://www.serif.com/" style="fill-rule:evenodd;clip-rule:evenodd;stroke-linejoin:round;stroke-miterlimit:2;">
    <g transform="matrix(1,0,0,1,-1440.692778,-5208.202222)">
        <g transform="matrix(5.555556,0,0,5.555556,2413.653889,6595.218889)">
            <path d="M0,-210.874L50.104,-160.77L50.104,-121.526L16.067,-155.564L-136.344,-155.564L-136.344,-210.874L0,-210.874ZM-86.241,-94.098L-108.915,-116.775L0,-116.775L22.675,-94.098L-86.241,-94.098ZM-136.344,-89.347L-102.308,-55.309L50.104,-55.309L50.104,0.001L-86.241,0.001L-136.344,-50.103L-136.344,-89.347ZM16.067,-249.663L-175.133,-249.663L-175.133,-34.037L-102.308,38.789L88.893,38.789L88.893,-176.837L16.067,-249.663Z" style="fill:white;fill-rule:nonzero;"/>
        </g>
    </g>
</svg>
