<?xml version="1.0" encoding="UTF-8" standalone="no"?>
<!DOCTYPE svg PUBLIC "-//W3C//DTD SVG 1.1//EN" "http://www.w3.org/Graphics/SVG/1.1/DTD/svg11.dtd">
<svg width="100%" height="100%" viewBox="0 0 2152 784" version="1.1" xmlns="http://www.w3.org/2000/svg" xmlns:xlink="http://www.w3.org/1999/xlink" xml:space="preserve" xmlns:serif="http://www.serif.com/" style="fill-rule:evenodd;clip-rule:evenodd;stroke-linejoin:round;stroke-miterlimit:2;">
    <g transform="matrix(1,0,0,1,-1090.056667,-1097.925556)">
        <g transform="matrix(5.555556,0,0,5.555556,3173.698889,1171.727222)">
            <path d="M0,-1.248C1.519,-1.248 2.363,-1.991 2.363,-3.24C2.363,-4.558 1.519,-5.3 0,-5.3L-1.756,-5.3L-1.756,-1.248L0,-1.248ZM-1.756,6.044L-4.322,6.044L-4.322,-7.528L0.371,-7.528C3.004,-7.528 4.963,-5.671 4.963,-3.274C4.963,-1.384 3.747,0.169 1.991,0.743L5.031,6.044L2.093,6.044L-0.743,0.98L-1.756,0.98L-1.756,6.044ZM-0.203,9.387C5.199,9.387 9.453,5.031 9.453,-0.641C9.453,-6.313 5.199,-10.635 -0.203,-10.635C-5.605,-10.635 -9.859,-6.313 -9.859,-0.641C-9.859,5.031 -5.605,9.387 -0.203,9.387M-0.203,-13.1C6.651,-13.1 12.188,-7.494 12.188,-0.641C12.188,6.213 6.651,11.852 -0.203,11.852C-7.023,11.852 -12.492,6.213 -12.492,-0.641C-12.492,-7.494 -7.023,-13.1 -0.203,-13.1" style="fill:rgb(1,61,255);fill-rule:nonzero;"/>
        </g>
        <g transform="matrix(5.555556,0,0,5.555556,1559.517778,1767.175556)">
            <path d="M0,-101.749L24.176,-77.573L24.176,-58.638L7.752,-75.062L-65.787,-75.062L-65.787,-101.749L0,-101.749ZM-41.612,-45.403L-52.553,-56.346L0,-56.346L10.941,-45.403L-41.612,-45.403ZM-65.787,-43.11L-49.365,-26.687L24.176,-26.687L24.176,0L-41.612,0L-65.787,-24.176L-65.787,-43.11ZM7.752,-120.465L-84.503,-120.465L-84.503,-16.423L-49.365,18.716L42.892,18.716L42.892,-85.325L7.752,-120.465Z" style="fill:rgb(1,61,255);fill-rule:nonzero;"/>
        </g>
        <g transform="matrix(5.555556,0,0,5.555556,0,-65044.466667)">
            <path d="M368.295,11937.6L384.872,11937.6L384.872,11931.087L368.295,11931.087L368.295,11937.6ZM368.295,11921.616L380.372,11921.616L382.8,11915.103L368.295,11915.103L368.295,11921.616ZM389.608,11905.631L394.048,11912.025L390.259,11922.266L394.344,11926.351L394.344,11942.337L389.608,11947.073L363.558,11947.073L358.822,11942.337L358.822,11910.367L363.558,11905.631L389.608,11905.631Z" style="fill:rgb(1,61,255);fill-rule:nonzero;"/>
        </g>
        <g transform="matrix(5.555556,0,0,5.555556,0,-65044.466667)">
            <path d="M409.737,11937.6L432.234,11937.6L432.234,11915.103L409.737,11915.103L409.737,11937.6ZM436.97,11905.631L441.706,11910.367L441.706,11942.337L436.97,11947.073L405,11947.073L400.264,11942.337L400.264,11910.367L405,11905.631L436.97,11905.631Z" style="fill:rgb(1,61,255);fill-rule:nonzero;"/>
        </g>
        <g transform="matrix(5.555556,0,0,5.555556,2707.180556,1328.16)">
            <path d="M0,-41.442L-10.005,-20.662L0,0L-10.538,0L-18.234,-15.985L-23.267,-15.985L-30.963,0L-41.442,0L-31.437,-20.78L-41.442,-41.442L-30.904,-41.442L-23.208,-25.457L-18.175,-25.457L-10.479,-41.442L0,-41.442Z" style="fill:rgb(1,61,255);fill-rule:nonzero;"/>
        </g>
        <g transform="matrix(5.555556,0,0,5.555556,0,-64501.477778)">
            <path d="M368.295,11888.732L390.792,11888.732L390.792,11866.235L368.295,11866.235L368.295,11888.732ZM395.528,11856.762L400.264,11861.498L400.264,11893.468L395.528,11898.204L363.558,11898.204L358.822,11893.468L358.822,11861.498L363.558,11856.762L395.528,11856.762Z" style="fill:rgb(1,61,255);fill-rule:nonzero;"/>
        </g>
        <g transform="matrix(5.555556,0,0,5.555556,2447.345556,1599.655)">
            <path d="M0,-41.442L0,-31.969L-21.905,-31.969L-19.063,-23.088L-2.368,-23.088L-2.368,-13.616L-23.681,-13.616L-23.681,0L-33.154,0L-33.154,-18.352L-28.832,-22.674L-32.917,-35.225L-28.418,-41.442L0,-41.442Z" style="fill:rgb(1,61,255);fill-rule:nonzero;"/>
        </g>
        <g transform="matrix(5.555556,0,0,5.555556,2654.552778,1599.655)">
            <path d="M0,-41.442L0,-31.969L-21.905,-31.969L-19.063,-23.088L-2.368,-23.088L-2.368,-13.616L-23.681,-13.616L-23.681,0L-33.154,0L-33.154,-18.352L-28.832,-22.674L-32.917,-35.225L-28.418,-41.442L0,-41.442Z" style="fill:rgb(1,61,255);fill-rule:nonzero;"/>
        </g>
        <g transform="matrix(5.555556,0,0,5.555556,0,-64501.477778)">
            <rect x="481.963" y="11856.762" width="9.472" height="41.442" style="fill:rgb(1,61,255);"/>
        </g>
        <g transform="matrix(5.555556,0,0,5.555556,2973.588333,1599.655)">
            <path d="M0,-41.442L4.736,-36.706L4.736,-24.865L-4.736,-24.865L-4.736,-31.969L-27.234,-31.969L-27.234,-9.472L-4.736,-9.472L-4.736,-16.577L4.736,-16.577L4.736,-4.736L0,0L-31.97,0L-36.706,-4.736L-36.706,-36.706L-31.97,-41.442L0,-41.442Z" style="fill:rgb(1,61,255);fill-rule:nonzero;"/>
        </g>
        <g transform="matrix(5.555556,0,0,5.555556,3236.711111,1599.655)">
            <path d="M0,-41.442L0,-31.969L-23.977,-31.969L-21.55,-25.457L-5.92,-25.457L-5.92,-15.984L-26.049,-15.984L-26.049,-9.472L0,-9.472L0,0L-30.786,0L-35.522,-4.736L-35.522,-20.72L-31.437,-24.805L-35.226,-35.047L-30.786,-41.442L0,-41.442Z" style="fill:rgb(1,61,255);fill-rule:nonzero;"/>
        </g>
        <g transform="matrix(5.555556,0,0,5.555556,2046.082222,1742.877222)">
            <path d="M0,4.737L16.577,0.948L16.577,-8.88L0,-8.88L0,4.737ZM21.313,-18.353L26.049,-13.617L26.049,4.737L22.379,9.354L0,14.446L0,23.09L-9.472,23.09L-9.472,-13.617L-4.736,-18.353L21.313,-18.353Z" style="fill:rgb(1,61,255);fill-rule:nonzero;"/>
        </g>
        <g transform="matrix(5.555556,0,0,5.555556,2417.742778,1871.15)">
            <path d="M0,-41.442L0,-4.736L-4.736,0L-30.786,0L-35.522,-4.736L-35.522,-41.442L-26.049,-41.442L-26.049,-9.472L-9.472,-9.472L-9.472,-41.442L0,-41.442Z" style="fill:rgb(1,61,255);fill-rule:nonzero;"/>
        </g>
        <g transform="matrix(5.555556,0,0,5.555556,2674.285556,1871.15)">
            <path d="M0,-41.442L0,-31.969L-29.602,-31.969L-29.602,-9.472L-7.105,-9.472L-7.105,-15.984L-18.353,-15.984L-18.353,-25.457L-2.368,-25.457L2.368,-20.72L2.368,-4.736L-2.368,0L-34.338,0L-39.074,-4.736L-39.074,-36.706L-34.338,-41.442L0,-41.442Z" style="fill:rgb(1,61,255);fill-rule:nonzero;"/>
        </g>
        <g transform="matrix(5.555556,0,0,5.555556,2779.532778,1871.15)">
            <path d="M0,-41.442L0,-9.472L20.129,-9.472L20.129,0L-4.736,0L-9.472,-4.736L-9.472,-41.442L0,-41.442Z" style="fill:rgb(1,61,255);fill-rule:nonzero;"/>
        </g>
        <g transform="matrix(5.555556,0,0,5.555556,0,-63958.488889)">
            <rect x="524.589" y="11807.893" width="9.472" height="41.442" style="fill:rgb(1,61,255);"/>
        </g>
        <g transform="matrix(5.555556,0,0,5.555556,3058.770556,1713.94)">
            <path d="M0,16.931L14.149,9.886L10.656,-3.672L5.328,-3.672L0,16.931ZM14.327,-13.144L18.886,-9.591L28.714,28.298L18.945,28.298L16.577,19.241L-5.091,30.075L-11.781,24.628L-2.901,-9.591L1.658,-13.144L14.327,-13.144Z" style="fill:rgb(1,61,255);fill-rule:nonzero;"/>
        </g>
    </g>
</svg>
