<?xml version="1.0" encoding="UTF-8" standalone="no"?>
<!DOCTYPE svg PUBLIC "-//W3C//DTD SVG 1.1//EN" "http://www.w3.org/Graphics/SVG/1.1/DTD/svg11.dtd">
<svg width="100%" height="100%" viewBox="0 0 1719 625" version="1.1" xmlns="http://www.w3.org/2000/svg" xmlns:xlink="http://www.w3.org/1999/xlink" xml:space="preserve" xmlns:serif="http://www.serif.com/" style="fill-rule:evenodd;clip-rule:evenodd;stroke-linejoin:round;stroke-miterlimit:2;">
    <g transform="matrix(1,0,0,1,-1306.631111,-36221.936111)">
        <g transform="matrix(5.555556,0,0,5.555556,2970.825556,36280.806111)">
            <path d="M0,-0.996C1.211,-0.996 1.885,-1.589 1.885,-2.585C1.885,-3.636 1.211,-4.228 0,-4.228L-1.401,-4.228L-1.401,-0.996L0,-0.996ZM-1.401,4.821L-3.447,4.821L-3.447,-6.005L0.296,-6.005C2.396,-6.005 3.959,-4.524 3.959,-2.612C3.959,-1.104 2.989,0.135 1.588,0.593L4.013,4.821L1.669,4.821L-0.593,0.781L-1.401,0.781L-1.401,4.821ZM-0.162,7.487C4.147,7.487 7.54,4.013 7.54,-0.511C7.54,-5.036 4.147,-8.483 -0.162,-8.483C-4.471,-8.483 -7.864,-5.036 -7.864,-0.511C-7.864,4.013 -4.471,7.487 -0.162,7.487M-0.162,-10.449C5.305,-10.449 9.722,-5.978 9.722,-0.511C9.722,4.956 5.305,9.453 -0.162,9.453C-5.602,9.453 -9.965,4.956 -9.965,-0.511C-9.965,-5.978 -5.602,-10.449 -0.162,-10.449" style="fill:white;fill-rule:nonzero;"/>
        </g>
        <g transform="matrix(5.555556,0,0,5.555556,1679.192222,36753.053333)">
            <path d="M0,-80.748L19.186,-61.562L19.186,-46.536L6.152,-59.569L-52.209,-59.569L-52.209,-80.748L0,-80.748ZM-33.023,-36.032L-41.706,-44.716L0,-44.716L8.683,-36.032L-33.023,-36.032ZM-52.209,-34.213L-39.176,-21.18L19.186,-21.18L19.186,0L-33.023,0L-52.209,-19.186L-52.209,-34.213ZM6.152,-95.601L-67.061,-95.601L-67.061,-13.034L-39.176,14.853L34.039,14.853L34.039,-67.714L6.152,-95.601Z" style="fill:white;fill-rule:nonzero;"/>
        </g>
        <g transform="matrix(5.555556,0,0,5.555556,0,5156.972222)">
            <path d="M372.846,5617.195L386.069,5617.195L386.069,5612.001L372.846,5612.001L372.846,5617.195ZM372.846,5604.444L382.48,5604.444L384.416,5599.25L372.846,5599.25L372.846,5604.444ZM389.847,5591.694L393.389,5596.794L390.366,5604.964L393.625,5608.222L393.625,5620.973L389.847,5624.751L369.068,5624.751L365.291,5620.973L365.291,5595.471L369.068,5591.694L389.847,5591.694Z" style="fill:white;fill-rule:nonzero;"/>
        </g>
        <g transform="matrix(5.555556,0,0,5.555556,0,5156.972222)">
            <path d="M405.903,5617.195L423.848,5617.195L423.848,5599.25L405.903,5599.25L405.903,5617.195ZM427.626,5591.694L431.404,5595.471L431.404,5620.973L427.626,5624.751L402.125,5624.751L398.347,5620.973L398.347,5595.471L402.125,5591.694L427.626,5591.694Z" style="fill:white;fill-rule:nonzero;"/>
        </g>
        <g transform="matrix(5.555556,0,0,5.555556,2598.701667,36405.586111)">
            <path d="M0,-33.057L-7.981,-16.481L0,0L-8.406,0L-14.545,-12.75L-18.559,-12.75L-24.698,0L-33.057,0L-25.076,-16.576L-33.057,-33.057L-24.651,-33.057L-18.512,-20.307L-14.498,-20.307L-8.359,-33.057L0,-33.057Z" style="fill:white;fill-rule:nonzero;"/>
        </g>
        <g transform="matrix(5.555556,0,0,5.555556,0,5590.094444)">
            <path d="M372.846,5578.214L390.791,5578.214L390.791,5560.269L372.846,5560.269L372.846,5578.214ZM394.569,5552.713L398.347,5556.491L398.347,5581.992L394.569,5585.77L369.068,5585.77L365.291,5581.992L365.291,5556.491L369.068,5552.713L394.569,5552.713Z" style="fill:white;fill-rule:nonzero;"/>
        </g>
        <g transform="matrix(5.555556,0,0,5.555556,2391.441111,36622.15)">
            <path d="M0,-33.057L0,-25.501L-17.473,-25.501L-15.206,-18.418L-1.889,-18.418L-1.889,-10.862L-18.89,-10.862L-18.89,0L-26.445,0L-26.445,-14.64L-22.998,-18.087L-26.257,-28.099L-22.668,-33.057L0,-33.057Z" style="fill:white;fill-rule:nonzero;"/>
        </g>
        <g transform="matrix(5.555556,0,0,5.555556,2556.722222,36622.15)">
            <path d="M0,-33.057L0,-25.501L-17.473,-25.501L-15.206,-18.418L-1.889,-18.418L-1.889,-10.862L-18.89,-10.862L-18.89,0L-26.445,0L-26.445,-14.64L-22.998,-18.087L-26.257,-28.099L-22.668,-33.057L0,-33.057Z" style="fill:white;fill-rule:nonzero;"/>
        </g>
        <g transform="matrix(5.555556,0,0,5.555556,0,5590.094444)">
            <rect x="463.515" y="5552.713" width="7.556" height="33.057" style="fill:white;"/>
        </g>
        <g transform="matrix(5.555556,0,0,5.555556,2811.205,36622.15)">
            <path d="M0,-33.057L3.778,-29.279L3.778,-19.834L-3.778,-19.834L-3.778,-25.501L-21.723,-25.501L-21.723,-7.556L-3.778,-7.556L-3.778,-13.223L3.778,-13.223L3.778,-3.778L0,0L-25.501,0L-29.279,-3.778L-29.279,-29.279L-25.501,-33.057L0,-33.057Z" style="fill:white;fill-rule:nonzero;"/>
        </g>
        <g transform="matrix(5.555556,0,0,5.555556,3021.088333,36622.15)">
            <path d="M0,-33.057L0,-25.501L-19.126,-25.501L-17.19,-20.307L-4.723,-20.307L-4.723,-12.751L-20.779,-12.751L-20.779,-7.556L0,-7.556L0,0L-24.557,0L-28.334,-3.778L-28.334,-16.529L-25.076,-19.787L-28.098,-27.957L-24.557,-33.057L0,-33.057Z" style="fill:white;fill-rule:nonzero;"/>
        </g>
        <g transform="matrix(5.555556,0,0,5.555556,2071.368333,36736.396667)">
            <path d="M0,3.777L13.223,0.755L13.223,-7.084L0,-7.084L0,3.777ZM17.001,-14.64L20.779,-10.863L20.779,3.777L17.851,7.461L0,11.522L0,18.417L-7.556,18.417L-7.556,-10.863L-3.778,-14.64L17.001,-14.64Z" style="fill:white;fill-rule:nonzero;"/>
        </g>
        <g transform="matrix(5.555556,0,0,5.555556,2367.827778,36838.710556)">
            <path d="M0,-33.057L0,-3.778L-3.778,0L-24.557,0L-28.334,-3.778L-28.334,-33.057L-20.779,-33.057L-20.779,-7.556L-7.556,-7.556L-7.556,-33.057L0,-33.057Z" style="fill:white;fill-rule:nonzero;"/>
        </g>
        <g transform="matrix(5.555556,0,0,5.555556,2572.462222,36838.710556)">
            <path d="M0,-33.057L0,-25.501L-23.612,-25.501L-23.612,-7.556L-5.667,-7.556L-5.667,-12.75L-14.639,-12.75L-14.639,-20.307L-1.889,-20.307L1.889,-16.529L1.889,-3.778L-1.889,0L-27.39,0L-31.168,-3.778L-31.168,-29.279L-27.39,-33.057L0,-33.057Z" style="fill:white;fill-rule:nonzero;"/>
        </g>
        <g transform="matrix(5.555556,0,0,5.555556,2656.414444,36838.710556)">
            <path d="M0,-33.057L0,-7.556L16.056,-7.556L16.056,0L-3.778,0L-7.556,-3.778L-7.556,-33.057L0,-33.057Z" style="fill:white;fill-rule:nonzero;"/>
        </g>
        <g transform="matrix(5.555556,0,0,5.555556,0,6023.216667)">
            <rect x="497.516" y="5513.732" width="7.556" height="33.057" style="fill:white;"/>
        </g>
        <g transform="matrix(5.555556,0,0,5.555556,2879.151667,36713.303889)">
            <path d="M0,13.506L11.286,7.886L8.5,-2.928L4.25,-2.928L0,13.506ZM11.428,-10.484L15.064,-7.65L22.904,22.573L15.112,22.573L13.223,15.348L-4.061,23.99L-9.398,19.645L-2.314,-7.65L1.322,-10.484L11.428,-10.484Z" style="fill:white;fill-rule:nonzero;"/>
        </g>
    </g>
</svg>
