<?xml version="1.0" encoding="UTF-8" standalone="no"?>
<!DOCTYPE svg PUBLIC "-//W3C//DTD SVG 1.1//EN" "http://www.w3.org/Graphics/SVG/1.1/DTD/svg11.dtd">
<svg width="100%" height="100%" viewBox="0 0 1467 1603" version="1.1" xmlns="http://www.w3.org/2000/svg" xmlns:xlink="http://www.w3.org/1999/xlink" xml:space="preserve" xmlns:serif="http://www.serif.com/" style="fill-rule:evenodd;clip-rule:evenodd;stroke-linejoin:round;stroke-miterlimit:2;">
    <g transform="matrix(1,0,0,1,-1440.692778,-5208.202222)">
        <g transform="matrix(5.555556,0,0,5.555556,2946.088889,5160.27)">
            <path d="M0,-2.007C2.441,-2.007 3.798,-3.201 3.798,-5.209C3.798,-7.324 2.441,-8.519 0,-8.519L-2.822,-8.519L-2.822,-2.007L0,-2.007ZM-2.822,9.712L-6.945,9.712L-6.945,-12.1L0.596,-12.1C4.828,-12.1 7.975,-9.115 7.975,-5.263C7.975,-2.225 6.022,0.271 3.2,1.194L8.084,9.712L3.364,9.712L-1.194,1.574L-2.822,1.574L-2.822,9.712ZM-0.327,15.084C8.355,15.084 15.191,8.085 15.191,-1.03C15.191,-10.147 8.355,-17.091 -0.327,-17.091C-9.007,-17.091 -15.844,-10.147 -15.844,-1.03C-15.844,8.085 -9.007,15.084 -0.327,15.084M-0.327,-21.052C10.688,-21.052 19.587,-12.045 19.587,-1.03C19.587,9.984 10.688,19.045 -0.327,19.045C-11.286,19.045 -20.076,9.984 -20.076,-1.03C-20.076,-12.045 -11.286,-21.052 -0.327,-21.052" style="fill:white;fill-rule:nonzero;"/>
        </g>
        <g transform="matrix(5.555556,0,0,5.555556,2413.653889,6595.218889)">
            <path d="M0,-210.874L50.104,-160.77L50.104,-121.526L16.067,-155.564L-136.344,-155.564L-136.344,-210.874L0,-210.874ZM-86.241,-94.098L-108.915,-116.775L0,-116.775L22.675,-94.098L-86.241,-94.098ZM-136.344,-89.347L-102.308,-55.309L50.104,-55.309L50.104,0.001L-86.241,0.001L-136.344,-50.103L-136.344,-89.347ZM16.067,-249.663L-175.133,-249.663L-175.133,-34.037L-102.308,38.789L88.893,38.789L88.893,-176.837L16.067,-249.663Z" style="fill:white;fill-rule:nonzero;"/>
        </g>
    </g>
</svg>
